<?xml version="1.0" encoding="utf-8"?>
<!-- Generator: Adobe Illustrator 15.1.0, SVG Export Plug-In . SVG Version: 6.00 Build 0)  -->
<!DOCTYPE svg PUBLIC "-//W3C//DTD SVG 1.1//EN" "http://www.w3.org/Graphics/SVG/1.1/DTD/svg11.dtd">
<svg version="1.1" xmlns="http://www.w3.org/2000/svg" xmlns:xlink="http://www.w3.org/1999/xlink" x="0px" y="0px" width="300px"
	 height="300px" viewBox="0 0 300 300" enable-background="new 0 0 300 300" xml:space="preserve">
<g id="Layer_2">
	<rect fill="#005A83" width="300" height="300"/>
</g>
<g id="Layer_1">
	<g>
		<g>
			<path fill="#FFFFFF" d="M215.521,88.871v45.003c-0.019,10.771-8.897,19.642-19.661,19.66l-37.812,0.006V96.264h-14.146v57.276
				h-39.521c-10.755-0.024-19.632-8.896-19.652-19.666V88.871H70.584l-0.005,45.003c0.027,18.65,15.164,33.779,33.803,33.813h91.478
				c18.645-0.033,33.78-15.162,33.808-33.813V88.871H215.521z M109.008,201.998c-0.005,2.908-2.403,5.304-5.309,5.308l-10.209,0.001
				V192.68h-3.819v14.627H79.459c-2.904-0.005-5.3-2.4-5.306-5.309v-12.712h-3.819l-0.002,12.712
				c0.007,5.035,4.094,9.12,9.127,9.131h24.24c5.034-0.011,9.121-4.096,9.128-9.131v-12.712h-3.819V201.998z M200.596,196.561v6.929
				c0.008,3.99,3.198,7.225,7.135,7.235h21.885v-3.773H207.73c-1.866-0.003-3.41-1.569-3.413-3.462v-1.577h22.101v-3.772h-22.101
				v-1.579c0.003-1.89,1.547-3.454,3.413-3.46h21.885v-3.772H207.73C203.794,189.334,200.604,192.572,200.596,196.561z
				 M143.538,198.101h-20.792v-8.923h-3.82v21.664h3.82v-8.923h20.792v8.923h3.821v-21.664h-3.821V198.101z M169.522,192.548h12.308
				v17.821h3.817v-17.821h12.306v-3.82h-28.431V192.548z M157.611,210.842h3.822v-21.664h-3.822V210.842z"/>
		</g>
	</g>
</g>
</svg>
